<mxfile host="app.diagrams.net" agent="Mozilla/5.0 (Windows NT 10.0; Win64; x64) AppleWebKit/537.36 (KHTML, like Gecko) Chrome/131.0.0.0 Safari/537.36" version="24.8.6" pages="2">
  <diagram name="Login IG" id="-NpsANL2zZp-8kKzgOdU">
    <mxGraphModel dx="1562" dy="973" grid="1" gridSize="10" guides="1" tooltips="1" connect="1" arrows="1" fold="1" page="1" pageScale="1" pageWidth="827" pageHeight="1169" math="0" shadow="0">
      <root>
        <mxCell id="0" />
        <mxCell id="1" parent="0" />
        <mxCell id="vTGTbaddHdwG1JX58C2j-6" style="edgeStyle=orthogonalEdgeStyle;rounded=0;orthogonalLoop=1;jettySize=auto;html=1;" parent="1" source="vTGTbaddHdwG1JX58C2j-1" target="vTGTbaddHdwG1JX58C2j-3" edge="1">
          <mxGeometry relative="1" as="geometry" />
        </mxCell>
        <mxCell id="vTGTbaddHdwG1JX58C2j-1" value="Mulai" style="rounded=1;whiteSpace=wrap;html=1;" parent="1" vertex="1">
          <mxGeometry x="330" y="230" width="120" height="60" as="geometry" />
        </mxCell>
        <mxCell id="vTGTbaddHdwG1JX58C2j-8" value="" style="edgeStyle=orthogonalEdgeStyle;rounded=0;orthogonalLoop=1;jettySize=auto;html=1;" parent="1" source="vTGTbaddHdwG1JX58C2j-3" target="vTGTbaddHdwG1JX58C2j-4" edge="1">
          <mxGeometry relative="1" as="geometry" />
        </mxCell>
        <mxCell id="vTGTbaddHdwG1JX58C2j-3" value="Klik aplikasi IG" style="shape=parallelogram;html=1;strokeWidth=2;perimeter=parallelogramPerimeter;whiteSpace=wrap;rounded=1;arcSize=12;size=0.23;" parent="1" vertex="1">
          <mxGeometry x="320" y="340" width="140" height="60" as="geometry" />
        </mxCell>
        <mxCell id="vTGTbaddHdwG1JX58C2j-9" value="" style="edgeStyle=orthogonalEdgeStyle;rounded=0;orthogonalLoop=1;jettySize=auto;html=1;" parent="1" source="vTGTbaddHdwG1JX58C2j-4" target="vTGTbaddHdwG1JX58C2j-5" edge="1">
          <mxGeometry relative="1" as="geometry" />
        </mxCell>
        <mxCell id="vTGTbaddHdwG1JX58C2j-4" value="Input username &amp;amp; password" style="shape=parallelogram;html=1;strokeWidth=2;perimeter=parallelogramPerimeter;whiteSpace=wrap;rounded=1;arcSize=12;size=0.1607142857142857;" parent="1" vertex="1">
          <mxGeometry x="320" y="460" width="140" height="60" as="geometry" />
        </mxCell>
        <mxCell id="vTGTbaddHdwG1JX58C2j-11" value="" style="edgeStyle=orthogonalEdgeStyle;rounded=0;orthogonalLoop=1;jettySize=auto;html=1;" parent="1" source="vTGTbaddHdwG1JX58C2j-5" target="vTGTbaddHdwG1JX58C2j-10" edge="1">
          <mxGeometry relative="1" as="geometry" />
        </mxCell>
        <mxCell id="vTGTbaddHdwG1JX58C2j-15" value="" style="edgeStyle=orthogonalEdgeStyle;rounded=0;orthogonalLoop=1;jettySize=auto;html=1;" parent="1" source="vTGTbaddHdwG1JX58C2j-5" target="vTGTbaddHdwG1JX58C2j-14" edge="1">
          <mxGeometry relative="1" as="geometry" />
        </mxCell>
        <mxCell id="vTGTbaddHdwG1JX58C2j-5" value="validasi" style="rhombus;whiteSpace=wrap;html=1;" parent="1" vertex="1">
          <mxGeometry x="350" y="570" width="80" height="80" as="geometry" />
        </mxCell>
        <mxCell id="vTGTbaddHdwG1JX58C2j-13" style="edgeStyle=orthogonalEdgeStyle;rounded=0;orthogonalLoop=1;jettySize=auto;html=1;entryX=1;entryY=0.5;entryDx=0;entryDy=0;exitX=0.5;exitY=0;exitDx=0;exitDy=0;" parent="1" source="vTGTbaddHdwG1JX58C2j-10" target="vTGTbaddHdwG1JX58C2j-4" edge="1">
          <mxGeometry relative="1" as="geometry">
            <Array as="points">
              <mxPoint x="590" y="490" />
            </Array>
          </mxGeometry>
        </mxCell>
        <mxCell id="vTGTbaddHdwG1JX58C2j-10" value="input ulang username &amp;amp; password" style="shape=parallelogram;html=1;strokeWidth=2;perimeter=parallelogramPerimeter;whiteSpace=wrap;rounded=1;arcSize=12;size=0.1607142857142857;" parent="1" vertex="1">
          <mxGeometry x="500" y="577.5" width="180" height="65" as="geometry" />
        </mxCell>
        <mxCell id="vTGTbaddHdwG1JX58C2j-17" value="" style="edgeStyle=orthogonalEdgeStyle;rounded=0;orthogonalLoop=1;jettySize=auto;html=1;" parent="1" source="vTGTbaddHdwG1JX58C2j-14" target="vTGTbaddHdwG1JX58C2j-16" edge="1">
          <mxGeometry relative="1" as="geometry" />
        </mxCell>
        <mxCell id="vTGTbaddHdwG1JX58C2j-14" value="Masuk beranda" style="rounded=0;whiteSpace=wrap;html=1;" parent="1" vertex="1">
          <mxGeometry x="330" y="700" width="120" height="60" as="geometry" />
        </mxCell>
        <mxCell id="vTGTbaddHdwG1JX58C2j-16" value="Selesai" style="rounded=1;whiteSpace=wrap;html=1;" parent="1" vertex="1">
          <mxGeometry x="330" y="810" width="120" height="60" as="geometry" />
        </mxCell>
        <mxCell id="vTGTbaddHdwG1JX58C2j-18" value="true" style="text;html=1;align=center;verticalAlign=middle;resizable=0;points=[];autosize=1;strokeColor=none;fillColor=none;" parent="1" vertex="1">
          <mxGeometry x="340" y="650" width="40" height="30" as="geometry" />
        </mxCell>
        <mxCell id="vTGTbaddHdwG1JX58C2j-19" value="false" style="text;html=1;align=center;verticalAlign=middle;resizable=0;points=[];autosize=1;strokeColor=none;fillColor=none;" parent="1" vertex="1">
          <mxGeometry x="445" y="578" width="50" height="30" as="geometry" />
        </mxCell>
        <mxCell id="vTGTbaddHdwG1JX58C2j-20" value="repeat" style="text;html=1;align=center;verticalAlign=middle;resizable=0;points=[];autosize=1;strokeColor=none;fillColor=none;" parent="1" vertex="1">
          <mxGeometry x="590" y="520" width="60" height="30" as="geometry" />
        </mxCell>
        <mxCell id="vTGTbaddHdwG1JX58C2j-21" value="buka aplikasi" style="text;html=1;align=center;verticalAlign=middle;resizable=0;points=[];autosize=1;strokeColor=none;fillColor=none;" parent="1" vertex="1">
          <mxGeometry x="405" y="298" width="90" height="30" as="geometry" />
        </mxCell>
      </root>
    </mxGraphModel>
  </diagram>
  <diagram id="GcW4yaGauz9cuDkOZwZQ" name="Task Nilai">
    <mxGraphModel dx="1562" dy="973" grid="1" gridSize="10" guides="1" tooltips="1" connect="1" arrows="1" fold="1" page="1" pageScale="1" pageWidth="827" pageHeight="1169" math="0" shadow="0">
      <root>
        <mxCell id="0" />
        <mxCell id="1" parent="0" />
        <mxCell id="P9H4ukO_VhqNktKCqo7M-3" value="" style="edgeStyle=orthogonalEdgeStyle;rounded=0;orthogonalLoop=1;jettySize=auto;html=1;" parent="1" source="P9H4ukO_VhqNktKCqo7M-1" target="P9H4ukO_VhqNktKCqo7M-2" edge="1">
          <mxGeometry relative="1" as="geometry" />
        </mxCell>
        <mxCell id="P9H4ukO_VhqNktKCqo7M-1" value="Mulai" style="strokeWidth=2;html=1;shape=mxgraph.flowchart.start_1;whiteSpace=wrap;" parent="1" vertex="1">
          <mxGeometry x="350" y="50" width="100" height="60" as="geometry" />
        </mxCell>
        <mxCell id="P9H4ukO_VhqNktKCqo7M-5" value="" style="edgeStyle=orthogonalEdgeStyle;rounded=0;orthogonalLoop=1;jettySize=auto;html=1;" parent="1" source="P9H4ukO_VhqNktKCqo7M-2" target="P9H4ukO_VhqNktKCqo7M-4" edge="1">
          <mxGeometry relative="1" as="geometry" />
        </mxCell>
        <mxCell id="P9H4ukO_VhqNktKCqo7M-2" value="Masukan nilai" style="shape=parallelogram;perimeter=parallelogramPerimeter;whiteSpace=wrap;html=1;fixedSize=1;strokeWidth=2;" parent="1" vertex="1">
          <mxGeometry x="340" y="190" width="120" height="60" as="geometry" />
        </mxCell>
        <mxCell id="P9H4ukO_VhqNktKCqo7M-7" value="" style="edgeStyle=orthogonalEdgeStyle;rounded=0;orthogonalLoop=1;jettySize=auto;html=1;" parent="1" source="P9H4ukO_VhqNktKCqo7M-4" target="P9H4ukO_VhqNktKCqo7M-6" edge="1">
          <mxGeometry relative="1" as="geometry" />
        </mxCell>
        <mxCell id="P9H4ukO_VhqNktKCqo7M-9" value="" style="edgeStyle=orthogonalEdgeStyle;rounded=0;orthogonalLoop=1;jettySize=auto;html=1;" parent="1" source="P9H4ukO_VhqNktKCqo7M-4" target="P9H4ukO_VhqNktKCqo7M-8" edge="1">
          <mxGeometry relative="1" as="geometry" />
        </mxCell>
        <mxCell id="P9H4ukO_VhqNktKCqo7M-4" value="nilai &amp;lt; 60" style="rhombus;whiteSpace=wrap;html=1;strokeWidth=2;" parent="1" vertex="1">
          <mxGeometry x="360" y="320" width="80" height="80" as="geometry" />
        </mxCell>
        <mxCell id="P9H4ukO_VhqNktKCqo7M-11" value="" style="edgeStyle=orthogonalEdgeStyle;rounded=0;orthogonalLoop=1;jettySize=auto;html=1;" parent="1" source="P9H4ukO_VhqNktKCqo7M-6" target="P9H4ukO_VhqNktKCqo7M-10" edge="1">
          <mxGeometry relative="1" as="geometry" />
        </mxCell>
        <mxCell id="P9H4ukO_VhqNktKCqo7M-13" value="" style="edgeStyle=orthogonalEdgeStyle;rounded=0;orthogonalLoop=1;jettySize=auto;html=1;" parent="1" source="P9H4ukO_VhqNktKCqo7M-6" target="P9H4ukO_VhqNktKCqo7M-12" edge="1">
          <mxGeometry relative="1" as="geometry" />
        </mxCell>
        <mxCell id="P9H4ukO_VhqNktKCqo7M-6" value="nilai &amp;lt; 75" style="rhombus;whiteSpace=wrap;html=1;strokeWidth=2;" parent="1" vertex="1">
          <mxGeometry x="360" y="480" width="80" height="80" as="geometry" />
        </mxCell>
        <mxCell id="P9H4ukO_VhqNktKCqo7M-8" value="nilai = D" style="shape=parallelogram;perimeter=parallelogramPerimeter;whiteSpace=wrap;html=1;fixedSize=1;strokeWidth=2;" parent="1" vertex="1">
          <mxGeometry x="500" y="330" width="120" height="60" as="geometry" />
        </mxCell>
        <mxCell id="P9H4ukO_VhqNktKCqo7M-10" value="nilai = C" style="shape=parallelogram;perimeter=parallelogramPerimeter;whiteSpace=wrap;html=1;fixedSize=1;strokeWidth=2;" parent="1" vertex="1">
          <mxGeometry x="500" y="490" width="120" height="60" as="geometry" />
        </mxCell>
        <mxCell id="P9H4ukO_VhqNktKCqo7M-17" value="" style="edgeStyle=orthogonalEdgeStyle;rounded=0;orthogonalLoop=1;jettySize=auto;html=1;" parent="1" source="P9H4ukO_VhqNktKCqo7M-12" target="P9H4ukO_VhqNktKCqo7M-16" edge="1">
          <mxGeometry relative="1" as="geometry" />
        </mxCell>
        <mxCell id="P9H4ukO_VhqNktKCqo7M-19" value="" style="edgeStyle=orthogonalEdgeStyle;rounded=0;orthogonalLoop=1;jettySize=auto;html=1;" parent="1" source="P9H4ukO_VhqNktKCqo7M-12" target="P9H4ukO_VhqNktKCqo7M-18" edge="1">
          <mxGeometry relative="1" as="geometry" />
        </mxCell>
        <mxCell id="P9H4ukO_VhqNktKCqo7M-12" value="nilai &amp;lt; 85" style="rhombus;whiteSpace=wrap;html=1;strokeWidth=2;" parent="1" vertex="1">
          <mxGeometry x="360" y="640" width="80" height="80" as="geometry" />
        </mxCell>
        <mxCell id="P9H4ukO_VhqNktKCqo7M-16" value="nilai = B" style="shape=parallelogram;perimeter=parallelogramPerimeter;whiteSpace=wrap;html=1;fixedSize=1;strokeWidth=2;" parent="1" vertex="1">
          <mxGeometry x="500" y="650" width="120" height="60" as="geometry" />
        </mxCell>
        <mxCell id="P9H4ukO_VhqNktKCqo7M-21" value="" style="edgeStyle=orthogonalEdgeStyle;rounded=0;orthogonalLoop=1;jettySize=auto;html=1;" parent="1" source="P9H4ukO_VhqNktKCqo7M-18" target="P9H4ukO_VhqNktKCqo7M-20" edge="1">
          <mxGeometry relative="1" as="geometry" />
        </mxCell>
        <mxCell id="P9H4ukO_VhqNktKCqo7M-18" value="nilai = A" style="shape=parallelogram;perimeter=parallelogramPerimeter;whiteSpace=wrap;html=1;fixedSize=1;strokeWidth=2;" parent="1" vertex="1">
          <mxGeometry x="340" y="810" width="120" height="60" as="geometry" />
        </mxCell>
        <mxCell id="P9H4ukO_VhqNktKCqo7M-20" value="Selesai" style="strokeWidth=2;html=1;shape=mxgraph.flowchart.start_1;whiteSpace=wrap;" parent="1" vertex="1">
          <mxGeometry x="350" y="960" width="100" height="60" as="geometry" />
        </mxCell>
        <mxCell id="P9H4ukO_VhqNktKCqo7M-22" style="edgeStyle=orthogonalEdgeStyle;rounded=0;orthogonalLoop=1;jettySize=auto;html=1;entryX=1;entryY=0.5;entryDx=0;entryDy=0;entryPerimeter=0;" parent="1" source="P9H4ukO_VhqNktKCqo7M-8" target="P9H4ukO_VhqNktKCqo7M-20" edge="1">
          <mxGeometry relative="1" as="geometry">
            <Array as="points">
              <mxPoint x="660" y="360" />
              <mxPoint x="660" y="990" />
            </Array>
          </mxGeometry>
        </mxCell>
        <mxCell id="P9H4ukO_VhqNktKCqo7M-23" style="edgeStyle=orthogonalEdgeStyle;rounded=0;orthogonalLoop=1;jettySize=auto;html=1;entryX=1;entryY=0.5;entryDx=0;entryDy=0;entryPerimeter=0;" parent="1" source="P9H4ukO_VhqNktKCqo7M-10" target="P9H4ukO_VhqNktKCqo7M-20" edge="1">
          <mxGeometry relative="1" as="geometry">
            <Array as="points">
              <mxPoint x="660" y="520" />
              <mxPoint x="660" y="990" />
            </Array>
          </mxGeometry>
        </mxCell>
        <mxCell id="P9H4ukO_VhqNktKCqo7M-24" style="edgeStyle=orthogonalEdgeStyle;rounded=0;orthogonalLoop=1;jettySize=auto;html=1;entryX=1;entryY=0.5;entryDx=0;entryDy=0;entryPerimeter=0;" parent="1" source="P9H4ukO_VhqNktKCqo7M-16" target="P9H4ukO_VhqNktKCqo7M-20" edge="1">
          <mxGeometry relative="1" as="geometry">
            <Array as="points">
              <mxPoint x="660" y="680" />
              <mxPoint x="660" y="990" />
            </Array>
          </mxGeometry>
        </mxCell>
        <mxCell id="P9H4ukO_VhqNktKCqo7M-25" value="Ya" style="text;html=1;align=center;verticalAlign=middle;resizable=0;points=[];autosize=1;strokeColor=none;fillColor=none;" parent="1" vertex="1">
          <mxGeometry x="450" y="330" width="40" height="30" as="geometry" />
        </mxCell>
        <mxCell id="P9H4ukO_VhqNktKCqo7M-26" value="Tidak" style="text;html=1;align=center;verticalAlign=middle;resizable=0;points=[];autosize=1;strokeColor=none;fillColor=none;" parent="1" vertex="1">
          <mxGeometry x="335" y="418" width="50" height="30" as="geometry" />
        </mxCell>
        <mxCell id="P9H4ukO_VhqNktKCqo7M-27" value="Ya" style="text;html=1;align=center;verticalAlign=middle;resizable=0;points=[];autosize=1;strokeColor=none;fillColor=none;" parent="1" vertex="1">
          <mxGeometry x="450" y="480" width="40" height="30" as="geometry" />
        </mxCell>
        <mxCell id="P9H4ukO_VhqNktKCqo7M-28" value="Ya" style="text;html=1;align=center;verticalAlign=middle;resizable=0;points=[];autosize=1;strokeColor=none;fillColor=none;" parent="1" vertex="1">
          <mxGeometry x="450" y="640" width="40" height="30" as="geometry" />
        </mxCell>
        <mxCell id="P9H4ukO_VhqNktKCqo7M-30" value="Tidak" style="text;html=1;align=center;verticalAlign=middle;resizable=0;points=[];autosize=1;strokeColor=none;fillColor=none;" parent="1" vertex="1">
          <mxGeometry x="340" y="580" width="50" height="30" as="geometry" />
        </mxCell>
        <mxCell id="P9H4ukO_VhqNktKCqo7M-31" value="Tidak" style="text;html=1;align=center;verticalAlign=middle;resizable=0;points=[];autosize=1;strokeColor=none;fillColor=none;" parent="1" vertex="1">
          <mxGeometry x="340" y="750" width="50" height="30" as="geometry" />
        </mxCell>
      </root>
    </mxGraphModel>
  </diagram>
</mxfile>
